<?xml version="1.0" standalone="no"?>
<!DOCTYPE svg PUBLIC "-//W3C//DTD SVG 20010904//EN"
 "http://www.w3.org/TR/2001/REC-SVG-20010904/DTD/svg10.dtd">
<svg version="1.0" xmlns="http://www.w3.org/2000/svg"
 width="512.000000pt" height="512.000000pt" viewBox="0 0 512.000000 512.000000"
 preserveAspectRatio="xMidYMid meet">

<g transform="translate(0.000000,512.000000) scale(0.100000,-0.100000)"
fill="#000000" stroke="none">
<path d="M0 2560 l0 -2560 2560 0 2560 0 0 2560 0 2560 -2560 0 -2560 0 0
-2560z m4956 1879 c59 -33 104 -82 134 -145 20 -40 20 -63 18 -1746 l-3 -1705
-38 -57 c-26 -39 -57 -70 -99 -97 l-61 -39 -2351 2 -2351 3 -46 27 c-55 32
-91 72 -125 139 l-24 49 2 1698 3 1697 29 52 c35 63 66 93 130 127 l49 26
2340 0 2340 0 53 -31z"/>
<path d="M276 3691 c-25 -47 -31 -150 -12 -213 33 -114 62 -136 480 -360 657
-353 716 -386 716 -401 0 -4 -142 -247 -317 -540 -516 -868 -487 -816 -477
-846 5 -14 21 -32 36 -40 26 -15 29 -14 59 14 55 52 372 396 748 813 200 221
368 402 373 402 5 0 81 -39 169 -86 327 -175 427 -212 548 -200 89 9 183 48
424 176 114 60 212 110 217 110 4 0 215 -228 467 -507 252 -279 508 -559 569
-622 111 -115 112 -116 139 -101 46 25 49 43 14 112 -17 34 -93 165 -169 292
-275 463 -504 853 -553 945 -40 75 -47 95 -36 102 8 5 232 124 499 265 540
286 596 319 635 370 38 50 65 125 65 182 0 52 -24 147 -40 157 -10 6 -182 -65
-1462 -603 l-807 -340 -558 235 c-957 402 -1702 713 -1707 713 -3 0 -12 -13
-20 -29z"/>
</g>
</svg>
