<?xml version="1.0" encoding="utf-8"?>
<!-- Generator: Adobe Illustrator 22.1.0, SVG Export Plug-In . SVG Version: 6.00 Build 0)  -->
<svg version="1.1" id="Layer_1" xmlns="http://www.w3.org/2000/svg" xmlns:xlink="http://www.w3.org/1999/xlink" x="0px" y="0px"
	 viewBox="0 0 515 387" style="enable-background:new 0 0 515 387;" xml:space="preserve">
<style type="text/css">
	.st0{display:none;stroke:#FFFFFF;stroke-miterlimit:10;}
	.st1{opacity:0.14;fill:#FFFFFF;enable-background:new    ;}
	.st2{fill:none;stroke:#FFFFFF;stroke-miterlimit:10;}
</style>
<rect x="-44.3" y="-114.9" class="st0" width="617.3" height="602.7"/>
<image style="display:none;overflow:visible;enable-background:new    ;" width="512" height="512" xlink:href="4FDF257CBCB16836.png"  transform="matrix(1 0 0 1 0.9048 -62.4444)">
</image>
<path class="st1" d="M2.7,24.6c-0.3,9.1-1,337.7-1,337.7c0,12.6,10.7,20.7,22.7,20.7l464,1.9c14.1-1.8,21.6-13.3,23-22.2
	c1.4-8.9,0.8-334.9,0.8-334.9C511.7,14.4,499.7,2.4,486,2.4S25.7,3.2,25.7,3.2C12.3,3.7,3,15.5,2.7,24.6z"/>
<path class="st2" d="M31,76l226.2,95.2l226.2-94.4c8.6,12.8,6.8,24.7-1.6,35.7c-21.9,15.8-68.2,39.8-113.5,63.5l79.4,138.1
	c-1,5.4-3.4,8.4-8.7,7.1L324.7,197.4l-50,27c-11,4.2-21.9,4.3-32.5,0l-54-26.2L77,320.4c-6,0.4-10.1-1.4-11.1-7.1l80.2-134.9
	L32.6,114.9C25.4,114.8,23.3,75.2,31,76z"/>
</svg>
